<?xml version="1.0" standalone="no"?>
<!DOCTYPE svg PUBLIC "-//W3C//DTD SVG 20010904//EN"
 "http://www.w3.org/TR/2001/REC-SVG-20010904/DTD/svg10.dtd">
<svg version="1.0" xmlns="http://www.w3.org/2000/svg"
 width="2668.000000pt" height="1191.000000pt" viewBox="0 0 2668.000000 1191.000000"
 preserveAspectRatio="xMidYMid meet">
<metadata>
Created by potrace 1.16, written by Peter Selinger 2001-2019
</metadata>
<g transform="translate(0.000000,1191.000000) scale(0.100000,-0.100000)"
fill="#000000" stroke="none">
<path d="M250 11867 c0 -43 58 -141 85 -145 18 -2 20 -9 17 -38 -3 -23 1 -41
13 -54 19 -21 32 -94 18 -103 -12 -8 -132 96 -180 156 -34 42 -73 62 -73 38 0
-5 -3 -16 -6 -25 -4 -9 9 -29 34 -54 25 -25 45 -56 52 -82 7 -27 18 -44 30
-47 24 -7 37 -46 50 -152 8 -65 19 -102 45 -153 19 -38 31 -68 26 -68 -4 0
-27 14 -51 31 -24 17 -61 41 -84 53 -22 11 -64 50 -92 86 -29 35 -57 66 -62
68 -15 5 -22 -40 -12 -82 5 -23 21 -50 39 -67 17 -15 31 -37 31 -48 0 -30 11
-51 27 -51 15 0 43 -57 43 -90 0 -28 -12 -25 -63 14 -44 34 -81 56 -91 56 -13
0 -5 -30 10 -38 11 -6 13 -11 5 -16 -6 -4 -11 -24 -11 -45 0 -44 32 -81 71
-81 49 0 54 -11 54 -127 l0 -108 31 -3 c22 -2 40 5 62 22 34 30 42 22 42 -41
l0 -36 -41 6 c-51 7 -133 47 -190 92 -24 19 -50 35 -58 35 -39 0 57 -209 119
-258 36 -30 110 -155 110 -189 0 -44 -94 -4 -184 77 l-56 52 0 -122 c0 -121 0
-123 30 -156 21 -24 31 -49 36 -86 6 -44 13 -58 46 -87 21 -19 38 -40 38 -48
0 -16 32 -17 47 -2 9 9 10 6 6 -10 -14 -55 -63 -28 -144 79 l-54 70 -3 -196
c-1 -108 0 -199 2 -202 3 -2 20 -7 38 -11 46 -9 49 -40 8 -75 -17 -14 -36 -26
-41 -26 -5 0 -9 -1869 -9 -4790 l0 -4790 13335 0 13335 0 0 4731 0 4730 -58
-49 c-31 -28 -85 -68 -120 -90 l-63 -39 -77 43 c-95 55 -106 56 -99 9 5 -30 3
-35 -14 -35 -11 0 -37 9 -59 20 -52 27 -60 25 -60 -10 0 -25 -4 -30 -25 -30
-13 0 -35 5 -49 11 -36 17 -76 -10 -76 -51 0 -24 4 -30 20 -30 17 0 19 -3 10
-19 -17 -33 -12 -41 29 -41 36 0 38 -2 33 -26 -5 -25 -3 -26 27 -22 28 4 31 2
31 -24 0 -30 10 -34 40 -18 15 8 24 6 40 -10 23 -23 26 -43 6 -59 -10 -9 -15
-8 -19 3 -8 20 -75 32 -98 17 -11 -6 -28 -11 -39 -11 -24 0 -26 -22 -4 -40 26
-22 36 -50 29 -81 l-7 -29 -47 40 c-26 22 -58 40 -70 40 -21 0 -22 -3 -16 -39
l6 -39 -38 8 c-21 4 -55 11 -75 15 -81 16 -48 -55 39 -87 27 -10 31 -16 26
-36 -7 -29 9 -42 53 -42 23 0 33 -5 37 -20 3 -13 14 -20 29 -20 28 0 48 -17
48 -42 0 -26 15 -22 39 10 16 21 20 23 21 10 0 -10 6 -18 14 -18 8 0 19 -15
26 -34 6 -18 22 -44 35 -56 14 -13 25 -29 25 -36 0 -7 12 -19 27 -26 37 -18
52 -46 33 -58 -23 -15 -110 -40 -162 -47 -41 -5 -53 -2 -96 26 -27 17 -54 31
-60 31 -7 0 -12 -17 -12 -41 l0 -41 -37 6 c-73 13 -95 11 -107 -7 -9 -14 -4
-23 31 -55 33 -31 40 -43 36 -64 -5 -24 -2 -27 28 -30 28 -3 33 -7 34 -31 1
-34 21 -49 55 -43 20 4 28 -1 36 -17 8 -18 17 -22 54 -20 l45 2 -23 -19 c-53
-44 -148 -46 -182 -4 -7 7 -23 14 -36 14 -18 0 -24 -6 -24 -21 0 -20 -4 -21
-47 -17 -87 10 -99 -16 -28 -58 37 -21 45 -31 45 -54 0 -33 24 -45 70 -35 28
6 30 5 30 -24 0 -26 4 -31 25 -31 20 0 25 -5 25 -26 0 -23 3 -25 25 -20 18 5
25 2 25 -9 0 -27 27 -16 69 30 22 24 52 51 65 60 21 14 25 14 47 -4 l24 -20
-42 -1 c-42 0 -43 -1 -43 -33 0 -18 7 -42 15 -53 20 -26 19 -34 -4 -34 -11 0
-32 -10 -48 -22 -46 -37 -94 -57 -163 -68 -36 -6 -80 -14 -98 -17 -43 -7 -152
17 -152 34 0 7 5 13 10 13 6 0 15 11 20 24 5 14 21 32 35 42 50 33 27 73 -43
74 -13 0 -22 3 -20 8 2 4 14 28 27 53 44 85 -4 112 -61 34 -37 -50 -48 -54
-66 -25 -28 46 -61 13 -93 -93 -13 -39 -36 -85 -56 -110 -35 -43 -93 -96 -105
-97 -4 0 -9 42 -11 93 -3 50 -8 107 -12 124 -11 52 1 98 31 111 34 16 37 15
31 -9 -13 -48 29 -68 57 -27 11 16 26 22 58 22 32 1 43 5 46 18 4 21 -74 108
-97 108 -9 0 -23 5 -31 10 -10 7 14 8 75 4 76 -5 93 -4 104 9 14 17 7 37 -13
37 -7 0 -24 13 -39 28 l-27 28 35 34 c38 37 46 70 18 70 -10 0 -42 -14 -72
-30 -30 -17 -56 -30 -58 -30 -1 0 -3 11 -3 25 0 44 -27 27 -59 -37 -17 -33
-31 -68 -31 -77 0 -9 -9 -22 -20 -29 -19 -11 -20 -10 -20 27 0 53 22 110 68
178 78 115 89 153 46 153 -39 0 -61 -16 -74 -55 -6 -19 -16 -35 -21 -35 -10 0
-10 3 -12 106 -2 57 -7 77 -27 107 -14 20 -28 37 -31 37 -4 0 -10 -66 -14
-146 l-8 -147 -49 57 c-27 31 -54 56 -59 56 -23 0 -8 -78 26 -130 66 -105 75
-129 74 -210 -1 -41 -4 -66 -6 -55 -3 11 -11 27 -18 35 -7 8 -15 40 -18 70 -6
61 -24 110 -42 110 -18 0 -35 -22 -35 -47 0 -30 -11 -29 -49 3 -18 15 -40 24
-53 22 -32 -4 -28 -48 10 -107 62 -100 59 -91 35 -108 -30 -20 -31 -68 -2 -83
16 -9 26 -8 45 5 l24 15 0 -41 0 -41 -34 21 c-49 31 -66 28 -66 -12 0 -21 10
-45 31 -70 22 -27 26 -37 15 -37 -8 0 -20 -9 -26 -20 -6 -11 -15 -20 -20 -20
-6 0 -46 27 -91 60 -85 63 -114 73 -124 40 -8 -25 21 -87 48 -102 19 -10 19
-11 -12 -24 -27 -11 -32 -18 -29 -41 2 -21 9 -29 27 -31 27 -4 51 -24 51 -43
0 -7 10 -23 21 -36 17 -17 19 -23 8 -26 -85 -24 -100 -40 -81 -82 12 -25 15
-26 63 -20 44 6 53 4 70 -14 25 -26 50 -27 72 -1 25 30 42 24 18 -6 -12 -15
-21 -35 -21 -45 0 -25 36 -34 65 -15 24 16 24 16 19 -13 -7 -35 6 -45 52 -37
23 5 38 16 48 34 l14 26 13 -42 c7 -23 10 -45 6 -48 -9 -10 -162 -20 -195 -13
-18 4 -56 23 -85 43 -61 42 -109 51 -115 23 -2 -11 7 -30 20 -44 l23 -25 -38
16 c-44 18 -89 48 -132 86 -56 52 -101 47 -93 -9 5 -35 5 -35 -87 -45 -58 -7
-70 -16 -60 -46 9 -30 79 -60 139 -60 l49 0 -22 -24 c-31 -33 -25 -70 12 -74
16 -2 39 4 53 13 23 14 24 14 24 -4 0 -10 7 -21 15 -25 8 -3 15 -17 15 -31 0
-27 31 -48 38 -27 4 14 34 31 74 43 l30 8 -26 -24 c-30 -28 -33 -47 -10 -66
14 -11 21 -11 45 3 29 17 29 17 29 -7 0 -35 24 -31 51 8 12 17 24 34 26 36 1
2 9 -1 16 -8 11 -8 18 -6 32 9 11 12 31 20 49 20 39 0 93 32 108 65 6 14 15
25 20 25 17 0 -22 -57 -70 -103 -46 -42 -182 -137 -197 -137 -4 0 -37 18 -75
40 -66 38 -110 51 -110 31 0 -5 4 -21 10 -35 8 -23 7 -26 -11 -26 -11 0 -37
10 -58 22 -43 25 -76 19 -66 -11 9 -28 -10 -34 -65 -20 -40 10 -52 10 -64 0
-21 -17 -22 -81 -1 -81 11 0 13 -8 8 -31 -6 -30 -5 -31 28 -27 31 3 34 0 34
-22 0 -22 4 -25 32 -22 31 2 32 1 26 -30 -6 -33 -1 -34 48 -14 21 9 49 -19 49
-48 0 -33 -9 -37 -31 -15 -20 20 -93 27 -104 9 -3 -5 -15 -10 -26 -10 -26 0
-25 -36 1 -50 15 -8 20 -21 20 -50 0 -23 -5 -40 -11 -40 -7 0 -32 18 -56 41
-61 56 -96 43 -68 -25 9 -21 16 -21 -117 1 -34 5 -38 3 -38 -15 0 -23 42 -57
89 -73 26 -9 29 -14 20 -30 -14 -27 -3 -39 34 -39 37 0 51 -8 60 -32 3 -9 18
-18 34 -20 22 -2 29 -9 31 -30 4 -34 15 -35 39 -5 l18 23 23 -25 c30 -34 69
-90 82 -119 5 -12 21 -27 34 -32 14 -5 30 -18 36 -30 10 -18 7 -22 -27 -37
-22 -10 -74 -19 -125 -21 -76 -3 -92 -1 -121 17 -43 27 -67 27 -67 1 0 -19 -7
-20 -208 -20 l-208 0 -57 57 c-67 66 -64 71 41 72 69 1 84 19 33 40 -39 17
-56 54 -54 118 2 60 -18 74 -40 26 -13 -32 -25 -43 -48 -43 -23 0 -44 131 -23
143 8 4 14 21 14 37 0 16 7 35 15 44 15 14 35 59 35 77 0 5 -6 9 -13 9 -16 0
-87 -71 -87 -88 0 -12 -47 -29 -56 -20 -9 10 40 104 68 129 18 18 28 37 28 56
0 17 7 43 15 59 19 39 48 154 41 161 -11 11 -45 -29 -48 -56 -2 -20 -8 -26
-28 -26 -17 0 -26 6 -29 20 -2 11 -8 23 -13 26 -6 4 -4 18 6 37 9 17 19 55 22
85 6 49 4 56 -16 70 -12 8 -25 30 -29 49 -4 18 -13 32 -19 31 -18 -4 -14 18 7
41 19 22 38 86 25 86 -4 0 -16 -7 -26 -17 -17 -15 -18 -15 -18 5 0 22 -76 132
-91 132 -15 0 -10 -57 8 -95 9 -19 22 -35 29 -35 7 0 10 -8 7 -21 -3 -11 0
-31 6 -43 7 -13 11 -36 9 -52 -3 -28 -5 -26 -63 48 -33 43 -66 78 -72 78 -20
0 -15 -45 6 -64 11 -10 23 -32 27 -50 3 -17 12 -38 20 -47 8 -9 17 -50 20 -95
4 -43 13 -94 20 -113 19 -47 19 -47 -23 -12 -63 53 -74 65 -94 104 -11 20 -24
37 -29 37 -19 0 -11 -81 10 -107 11 -14 20 -34 20 -45 0 -11 7 -26 15 -34 8
-9 15 -27 15 -42 l0 -26 -33 32 c-18 18 -37 32 -43 32 -16 0 -15 -83 2 -107 8
-13 24 -23 36 -23 20 0 21 -3 15 -74 -6 -86 5 -107 47 -88 27 12 36 7 36 -20
0 -11 -7 -18 -18 -18 -22 0 -99 48 -126 78 -28 32 -39 27 -31 -14 7 -41 51
-145 64 -154 12 -7 47 -80 55 -112 17 -70 -82 5 -141 107 -16 27 -37 51 -46
53 -20 4 -37 -30 -19 -36 7 -2 12 -19 12 -37 0 -19 9 -56 19 -82 17 -42 17
-52 5 -73 -7 -14 -13 -20 -14 -15 0 6 -10 26 -22 45 l-22 35 -7 -50 c-4 -31
-1 -67 7 -95 8 -25 14 -64 14 -87 l0 -43 -403 0 -404 0 -11 38 c-7 21 -21 47
-32 57 -20 18 -20 18 -20 -38 l0 -57 -735 0 c-404 0 -735 3 -735 6 0 3 11 20
24 37 36 48 68 117 62 133 -14 36 -78 3 -102 -54 -14 -33 -17 -35 -24 -17 -5
11 -9 54 -9 94 -1 65 -5 80 -28 115 l-28 39 -7 -39 c-4 -21 -7 -91 -8 -154 l0
-115 -51 58 c-28 31 -55 57 -60 57 -18 0 -8 -76 16 -117 l24 -43 -65 0 c-62 0
-64 1 -54 21 18 33 5 34 -59 5 -32 -14 -70 -26 -84 -26 -24 0 -25 4 -29 58 -5
76 -2 82 41 82 56 0 86 20 87 58 0 17 3 35 7 38 11 11 8 24 -4 24 -6 0 -42
-14 -81 -31 -38 -17 -72 -28 -76 -25 -11 11 18 57 43 66 14 5 25 16 25 25 0 8
18 26 40 40 34 22 40 30 40 60 0 19 -5 35 -11 35 -6 0 -38 -20 -71 -45 -33
-25 -72 -48 -87 -51 -14 -3 -53 -16 -86 -30 -78 -32 -85 -30 -48 8 36 39 53
69 53 97 0 38 31 101 50 101 10 0 27 16 39 35 11 19 36 43 56 52 21 10 35 24
35 35 0 35 -29 30 -98 -16 -38 -25 -93 -57 -123 -71 l-54 -25 -3 27 c-3 18 3
32 18 43 15 12 20 23 16 36 -5 15 -1 20 16 21 27 2 98 71 98 95 0 28 -35 22
-93 -17 -28 -19 -55 -35 -59 -35 -21 0 -4 40 33 75 l40 40 -37 5 c-51 7 -56
28 -7 32 l38 4 -41 17 -40 18 -2 201 c-2 198 -8 236 -33 211 -13 -13 -14 -40
-3 -125 6 -55 5 -58 -15 -58 -31 0 -37 -27 -12 -60 12 -17 21 -44 21 -66 0
-33 -2 -36 -25 -32 -37 8 -38 -5 -5 -51 32 -44 39 -81 15 -81 -19 0 -19 -9 1
-31 15 -16 14 -17 -5 -12 -26 7 -27 -7 -1 -40 13 -16 20 -40 20 -68 0 -40 -1
-41 -18 -26 -23 21 -42 22 -42 2 0 -8 -12 -17 -27 -21 -48 -10 -53 -13 -53
-29 0 -13 10 -16 58 -13 31 1 63 -1 70 -5 18 -12 15 -35 -4 -33 -9 0 -24 -12
-33 -28 -10 -17 -30 -33 -51 -40 -31 -10 -35 -15 -38 -51 -2 -31 4 -50 23 -78
29 -44 30 -47 9 -47 -9 0 -18 -9 -21 -20 -11 -43 -93 -38 -115 7 -13 28 -62
62 -73 52 -10 -10 35 -117 62 -150 14 -17 26 -42 27 -57 1 -22 11 -32 51 -54
27 -14 58 -38 68 -52 l19 -26 -49 0 c-36 0 -65 9 -120 37 -39 21 -75 34 -79
30 -5 -4 -3 -21 3 -37 l11 -30 -528 0 c-291 0 -535 3 -544 6 -14 5 -16 30 -16
173 -1 91 -5 270 -10 396 -5 127 -16 700 -25 1274 -8 574 -17 1047 -21 1050
-7 7 3 -2289 12 -2651 l6 -248 -3786 0 c-2517 0 -3786 3 -3786 10 0 6 7 10 15
10 17 0 20 25 5 35 -5 3 -10 14 -10 23 0 13 6 11 25 -11 20 -21 35 -27 66 -27
35 0 40 3 34 18 -14 35 -10 45 24 54 39 11 103 56 96 68 -3 4 -34 11 -70 15
-36 3 -65 9 -65 11 0 2 5 13 12 24 26 42 -3 36 -96 -20 -38 -23 -38 -23 -27
-2 16 29 14 34 -9 27 -26 -8 -25 0 1 33 l21 27 -21 3 c-12 2 -45 -16 -86 -47
-36 -28 -76 -51 -88 -51 -28 0 -133 50 -193 91 -41 28 -84 80 -84 102 0 20 46
0 58 -25 10 -21 20 -28 43 -28 18 0 29 5 29 14 0 8 15 -1 35 -21 41 -41 69
-41 73 2 4 50 12 75 23 75 5 0 27 -18 48 -40 29 -30 46 -40 69 -40 18 0 32 5
32 11 0 6 -16 33 -36 60 -20 27 -30 49 -24 49 7 0 14 -9 17 -20 6 -23 73 -60
108 -60 30 0 31 7 4 36 l-20 22 32 11 c18 6 40 11 50 11 23 0 24 8 2 32 -15
17 -14 18 33 18 55 0 74 12 74 47 0 17 -8 24 -37 32 -21 6 -46 11 -56 11 -10
0 -22 12 -27 26 -10 24 -14 26 -51 20 -23 -4 -58 -15 -80 -26 -48 -25 -49 -25
-49 5 0 14 -4 25 -10 25 -5 0 -10 12 -10 26 0 25 -2 26 -35 21 -33 -5 -35 -4
-35 24 0 37 -10 37 -64 -5 -68 -52 -109 -62 -157 -41 -43 20 -46 26 -24 45 8
7 15 23 15 35 0 25 -22 35 -77 35 -45 0 -62 9 -78 41 -22 41 -18 49 5 12 11
-18 23 -33 27 -33 16 0 32 16 41 40 l9 25 17 -32 c18 -36 43 -53 77 -53 20 0
21 3 15 41 -4 25 -3 38 3 35 5 -4 14 1 19 10 8 15 11 12 17 -14 9 -42 76 -117
97 -109 9 3 19 19 23 36 8 39 22 47 44 27 16 -14 26 -15 67 -6 63 14 114 39
114 55 0 8 -15 26 -34 42 -18 15 -38 37 -44 48 -6 12 -29 26 -54 33 -63 17
-83 35 -67 60 31 50 -28 77 -96 43 -44 -22 -70 -27 -61 -12 3 4 20 11 37 15
26 5 30 9 25 29 -4 19 1 26 37 42 27 13 43 28 45 41 3 18 -5 23 -45 34 -26 7
-56 14 -65 17 -22 5 -23 23 -4 49 14 19 15 19 38 -3 31 -30 46 -29 54 2 4 15
13 25 24 25 10 0 20 7 24 15 3 8 15 15 26 15 46 0 31 65 -18 76 -57 12 -59 14
-35 34 13 10 23 23 23 28 0 5 16 22 35 36 19 15 35 34 35 42 0 16 -39 34 -76
34 l-25 0 24 33 c36 48 48 74 41 91 -10 27 -38 18 -84 -29 l-44 -44 -18 29
c-10 17 -22 30 -28 30 -14 0 -66 -84 -81 -129 -16 -50 -51 -92 -113 -140 -29
-23 -55 -41 -58 -41 -3 0 -4 68 -3 151 2 158 5 169 51 183 19 6 21 3 20 -30
-1 -45 12 -51 49 -22 20 16 39 21 67 19 53 -4 58 18 16 76 -21 30 -45 50 -68
58 -21 7 -29 14 -22 19 7 4 16 5 21 1 6 -3 35 -10 66 -16 100 -18 124 12 54
68 l-39 31 28 24 c15 12 39 31 52 40 l25 17 -36 0 c-20 1 -58 -6 -85 -14 -27
-8 -50 -15 -51 -15 -2 0 -3 11 -3 25 0 14 -4 25 -9 25 -12 0 -91 -118 -91
-135 0 -7 -9 -15 -20 -18 -47 -12 -8 102 70 206 67 88 87 123 77 134 -11 11
-106 -39 -113 -59 -3 -10 -10 -16 -15 -12 -6 4 -8 36 -3 84 6 69 4 83 -17 124
-22 45 -39 59 -39 34 0 -7 -7 -71 -15 -143 -8 -71 -15 -134 -15 -140 0 -5 -11
6 -24 26 -23 33 -80 69 -91 57 -7 -7 18 -74 53 -144 31 -62 35 -81 33 -179 -1
-73 -14 -63 -31 25 -20 109 -69 177 -78 112 -3 -22 -4 -21 -48 9 -25 17 -47
29 -49 27 -2 -2 3 -30 11 -63 19 -82 18 -152 -2 -163 -10 -6 -14 -20 -12 -43
3 -29 7 -34 31 -37 16 -2 35 2 43 9 12 10 14 5 14 -30 0 -22 -3 -41 -6 -41 -3
0 -21 12 -40 26 -20 16 -40 24 -50 20 -24 -9 -12 -69 22 -114 15 -19 22 -32
14 -27 -9 6 -20 -1 -35 -19 l-22 -27 -66 60 c-37 33 -78 68 -92 77 -24 16 -27
16 -42 1 -14 -14 -15 -22 -4 -56 6 -22 23 -49 38 -60 l26 -21 -26 0 c-49 0
-74 -52 -34 -71 9 -5 25 -13 35 -18 9 -4 18 -17 20 -28 2 -12 12 -29 23 -39
27 -24 24 -34 -10 -34 -71 0 -97 -31 -70 -81 9 -18 17 -20 57 -14 42 6 50 4
70 -19 25 -30 44 -33 66 -11 25 25 41 17 17 -9 -30 -32 -24 -60 12 -64 16 -2
34 2 42 8 12 10 13 6 8 -24 l-6 -36 46 1 c36 2 48 7 58 26 16 29 29 13 29 -34
l0 -33 -92 0 c-100 0 -118 6 -199 68 -51 39 -88 50 -100 31 -13 -20 -12 -24
18 -53 20 -21 22 -25 7 -20 -39 15 -97 56 -139 100 -34 37 -49 45 -72 42 -24
-3 -28 -7 -28 -35 0 -32 -1 -33 -45 -34 -97 -3 -132 -26 -98 -66 20 -25 89
-53 132 -53 l39 0 -27 -25 c-27 -25 -30 -33 -20 -59 7 -18 55 -21 85 -6 14 8
19 7 19 -3 0 -7 5 -18 12 -25 7 -7 13 -22 13 -34 0 -28 32 -49 45 -28 5 8 32
22 59 31 l51 16 -37 -32 c-49 -42 -41 -69 17 -63 33 3 40 0 40 -14 0 -36 45
-14 71 34 10 19 11 19 24 1 13 -17 14 -17 32 0 11 9 34 17 52 17 51 0 117 44
134 90 4 11 6 10 6 -4 1 -31 -96 -118 -197 -174 l-92 -52 -74 50 c-90 61 -111
64 -103 15 7 -44 -11 -47 -65 -10 -50 34 -68 33 -68 -6 0 -29 -1 -30 -32 -24
-18 4 -37 11 -42 16 -16 14 -42 10 -59 -9 -22 -24 -23 -72 -2 -72 13 0 14 -4
5 -20 -15 -28 -5 -40 32 -40 27 0 30 -2 24 -25 -6 -23 -3 -25 24 -25 27 0 30
-3 30 -30 0 -31 13 -37 40 -20 19 12 50 -15 50 -45 0 -33 -9 -36 -41 -13 -23
17 -37 20 -80 15 -29 -4 -56 -10 -61 -15 -4 -4 3 -23 17 -42 18 -24 23 -41 18
-59 -10 -45 -14 -44 -60 3 -25 26 -53 46 -65 46 -18 0 -20 -4 -15 -40 3 -22 4
-40 4 -40 -1 0 -31 9 -67 20 -80 24 -90 25 -90 2 0 -23 46 -67 83 -81 25 -10
27 -13 16 -33 -10 -18 -8 -24 7 -35 10 -7 30 -13 45 -13 21 0 28 -5 31 -22 2
-17 11 -24 33 -28 24 -4 31 -11 33 -33 4 -31 27 -36 42 -8 10 20 11 19 33 -2
13 -12 29 -37 35 -54 l11 -33 -1075 0 -1074 0 0 24 c0 13 -9 34 -19 47 -21 26
-23 24 -35 -32 -7 -32 -37 -39 -178 -39 -78 0 -96 3 -92 14 3 7 16 18 30 25
15 6 27 22 30 40 4 17 14 31 25 34 10 3 24 18 31 34 7 15 32 58 55 95 24 36
43 75 43 84 0 10 7 38 16 61 13 33 14 51 7 76 l-9 32 -15 -26 c-35 -65 -122
-139 -163 -139 -9 0 -22 -11 -31 -24 -8 -12 -38 -35 -65 -50 -28 -15 -50 -31
-50 -36 0 -5 -19 -14 -42 -21 -24 -6 -52 -15 -64 -19 -11 -5 -26 -5 -33 -1
-15 10 14 37 51 46 39 10 62 39 54 70 -8 30 -35 33 -89 10 -39 -16 -122 -20
-131 -7 -3 5 8 16 25 26 16 9 39 36 50 59 43 84 57 98 93 91 28 -5 34 -2 39
15 4 15 13 21 35 21 39 0 89 55 96 107 3 21 13 75 21 119 26 141 16 174 -42
143 -40 -22 -121 -98 -135 -127 -8 -16 -23 -28 -38 -30 -14 -2 -33 -12 -43
-23 -22 -23 -67 -26 -67 -3 0 8 13 29 29 44 16 16 32 41 35 55 15 61 48 135
71 159 14 15 25 38 25 52 0 53 -38 84 -58 48 -8 -15 -12 -15 -39 0 -55 28 -53
56 8 105 50 41 50 57 -1 65 -47 7 -57 24 -40 66 19 46 7 74 -41 93 -32 13 -40
20 -35 34 4 9 10 36 13 60 5 39 4 43 -16 43 -14 0 -21 6 -21 19 0 10 -16 42
-35 71 -19 29 -35 61 -35 71 0 21 -29 26 -34 7 -32 -114 -41 -131 -83 -151
-49 -24 -54 -40 -18 -63 20 -13 23 -19 14 -30 -8 -10 -10 -36 -5 -80 l7 -66
-28 22 c-26 20 -28 20 -40 4 -7 -10 -13 -26 -13 -35 0 -11 -9 -19 -22 -21 -32
-4 -36 -43 -7 -67 13 -10 19 -23 15 -30 -5 -8 -14 -4 -28 14 -12 15 -30 25
-46 25 -15 1 -38 7 -52 15 -14 8 -33 14 -43 15 -16 0 -16 -2 -2 -37 9 -20 27
-52 41 -70 20 -26 24 -40 18 -67 -5 -30 -12 -37 -47 -48 -64 -20 -109 -102
-75 -136 7 -7 31 -12 54 -12 55 0 74 -8 74 -31 0 -15 -5 -18 -24 -13 -20 5
-25 0 -35 -26 -12 -35 -22 -36 -88 -9 -18 7 -35 10 -38 7 -9 -8 180 -294 216
-326 l30 -27 -71 0 c-78 0 -80 1 -134 85 -18 29 -28 35 -56 35 -34 0 -35 -1
-32 -35 2 -19 4 -66 6 -105 2 -38 4 -78 4 -88 1 -10 16 -24 35 -31 17 -7 41
-17 52 -21 17 -7 15 -9 -15 -16 -61 -14 -142 16 -222 82 -47 39 -71 42 -83 12
-7 -20 34 -81 75 -112 17 -12 30 -28 30 -36 0 -16 73 -138 104 -174 12 -13 30
-27 41 -32 13 -5 -4 -8 -49 -6 -67 2 -70 3 -100 40 -22 27 -31 50 -31 74 0 71
-67 71 -73 0 -2 -22 5 -51 18 -76 l20 -41 -262 1 c-162 0 -255 4 -241 9 27 11
45 43 37 64 -5 12 -21 16 -70 16 -57 0 -64 2 -64 20 0 32 -48 25 -107 -15 -61
-41 -63 -41 -63 -16 0 11 -9 21 -21 24 -16 4 -19 10 -14 28 6 19 4 21 -16 17
-13 -3 -32 -9 -41 -13 -15 -6 -18 -2 -18 19 0 39 -20 32 -83 -29 -45 -44 -63
-55 -89 -55 -55 0 -80 10 -72 29 4 9 9 28 12 44 l4 27 -74 0 c-59 0 -78 4 -90
18 -28 32 -32 47 -5 20 14 -16 31 -28 36 -28 14 0 31 34 31 62 1 22 1 22 16
-4 18 -34 43 -48 83 -48 35 0 38 8 16 50 -14 27 -14 30 0 30 8 0 15 5 15 10 0
6 5 10 10 10 6 0 10 -7 10 -17 0 -25 77 -93 105 -93 22 0 25 5 25 33 0 45 18
62 42 40 17 -15 21 -15 60 2 57 25 108 63 108 80 0 8 -17 23 -37 34 -21 11
-46 29 -55 40 -12 14 -30 21 -52 21 -19 0 -47 5 -61 10 -23 9 -26 14 -20 41
13 57 -49 67 -110 19 -41 -32 -75 -42 -37 -10 12 10 28 20 35 23 9 3 9 9 -1
26 -11 18 -10 22 5 28 28 10 63 45 63 63 0 19 -37 30 -102 30 -39 0 -40 1 -33
27 9 37 10 38 44 23 34 -14 51 -7 51 21 0 10 6 19 13 19 7 0 18 9 25 20 7 11
18 20 26 20 11 0 26 20 26 35 0 15 -38 35 -65 35 -41 0 -53 15 -31 39 9 10 16
22 16 28 0 5 11 20 25 33 15 14 25 33 23 45 -2 16 -12 21 -50 23 l-48 3 20 39
c23 45 26 95 7 103 -19 7 -29 -1 -66 -56 l-33 -49 -24 22 c-12 13 -30 20 -38
17 -14 -6 -56 -122 -56 -157 0 -36 -120 -194 -135 -178 -3 3 -10 45 -16 93 -5
49 -14 94 -20 101 -5 6 -10 33 -11 60 0 38 4 51 22 66 32 26 40 23 40 -17 0
-28 4 -35 20 -35 11 0 28 12 38 28 13 21 23 26 45 24 28 -3 57 12 57 29 0 16
-82 89 -100 89 -27 0 -51 11 -45 20 3 5 29 6 58 3 28 -3 68 -1 87 4 44 12 52
39 15 53 -15 6 -38 19 -51 29 l-23 18 35 42 c22 25 34 48 30 57 -8 21 -38 11
-98 -32 l-48 -34 0 25 c0 40 -29 30 -50 -18 -11 -24 -22 -61 -26 -83 -3 -25
-14 -45 -26 -53 -20 -12 -20 -11 -16 56 3 58 11 84 56 173 28 58 52 111 52
117 0 6 -7 16 -15 23 -22 18 -64 -13 -83 -61 -8 -22 -19 -36 -24 -31 -5 5 -11
40 -15 78 -7 78 -19 108 -58 144 l-28 25 6 -70 c4 -38 9 -108 13 -155 l7 -85
-56 53 c-31 28 -61 52 -66 52 -18 0 -12 -53 10 -90 12 -19 39 -56 60 -81 48
-57 57 -81 64 -166 4 -60 4 -65 -7 -42 -7 14 -18 32 -24 40 -7 8 -15 34 -19
59 -10 60 -31 100 -54 100 -20 0 -31 -19 -31 -51 0 -25 -7 -24 -50 6 -44 30
-70 25 -70 -14 0 -28 14 -53 67 -115 38 -46 40 -57 13 -74 -24 -15 -26 -45 -4
-66 21 -21 40 -20 63 3 18 18 19 18 25 -21 4 -23 5 -43 2 -45 -2 -2 -19 5 -37
16 -49 30 -69 28 -69 -9 0 -22 11 -41 40 -70 25 -25 34 -40 25 -40 -9 0 -20
-11 -25 -25 -5 -14 -12 -25 -16 -25 -4 0 -46 23 -95 51 -109 63 -123 65 -127
21 -3 -27 3 -39 33 -68 l36 -34 -25 -10 c-14 -5 -26 -14 -26 -20 0 -29 -129
-61 -174 -44 -24 9 -19 24 8 24 46 0 67 29 73 100 2 36 11 82 19 104 17 45 6
66 -33 66 -18 0 -32 -12 -55 -50 -35 -57 -60 -68 -113 -50 -20 6 -44 9 -53 6
-13 -4 -12 -2 3 9 11 8 27 20 36 27 26 20 211 279 205 285 -3 4 -23 1 -45 -5
-51 -16 -51 -16 -62 18 -7 19 -18 30 -30 30 -21 0 -26 25 -6 37 6 4 35 8 62 8
45 0 50 2 53 25 2 13 -1 42 -8 63 -9 30 -20 42 -48 55 -32 15 -37 22 -40 55
-3 32 2 44 31 76 36 39 54 78 43 89 -4 3 -21 0 -39 -6 -19 -7 -43 -12 -55 -12
-12 0 -30 -10 -42 -22 -17 -18 -20 -19 -20 -5 0 9 9 22 20 29 26 16 26 44 0
60 -11 7 -20 20 -20 30 0 25 -11 48 -23 48 -6 0 -19 -8 -30 -17 -19 -16 -20
-17 -14 -1 21 58 27 99 17 117 -14 27 -13 30 15 41 34 13 31 33 -7 63 -32 26
-57 89 -58 150 0 17 -5 27 -15 27 -8 0 -15 -8 -15 -19 0 -10 -13 -35 -29 -55
-17 -21 -36 -51 -43 -67 -7 -16 -18 -29 -25 -29 -8 0 -13 -22 -15 -61 -3 -60
-4 -62 -38 -73 -35 -11 -35 -12 -35 -68 -1 -65 -7 -75 -50 -80 -38 -4 -36 -28
6 -76 33 -38 34 -40 14 -69 -18 -26 -54 -36 -62 -17 -7 19 -39 18 -47 -2 -11
-30 -6 -73 13 -106 11 -18 24 -66 30 -106 6 -41 21 -91 34 -112 16 -29 19 -42
11 -50 -14 -14 -54 3 -54 23 0 7 -13 18 -30 24 -19 7 -30 18 -30 31 0 25 -72
124 -106 147 -26 17 -28 17 -41 -1 -10 -14 -12 -46 -8 -139 3 -66 8 -134 11
-151 6 -44 40 -84 70 -84 19 0 24 -5 24 -26 0 -23 3 -26 25 -21 31 5 48 -15
71 -88 9 -27 28 -62 41 -76 14 -15 21 -29 16 -32 -15 -10 -93 12 -123 35 -34
25 -57 19 -66 -18 -6 -23 -2 -32 22 -51 87 -72 91 -92 10 -54 -47 21 -146 110
-146 130 0 6 -15 21 -33 31 l-34 20 -7 438 c-8 587 -19 933 -27 857 -4 -45 -7
-24 -10 85 -2 80 -6 -181 -9 -580 -5 -680 -6 -723 -21 -695 -28 51 -48 191
-48 336 0 74 -5 148 -11 163 l-10 28 -20 -25 c-29 -37 -38 -67 -34 -117 5 -60
17 -460 18 -588 1 -56 5 -102 10 -102 5 0 3 -7 -4 -15 -6 -8 -9 -23 -5 -34 12
-37 14 -61 5 -61 -11 0 -20 26 -20 56 0 29 -15 31 -30 5 -17 -33 -11 -75 19
-143 17 -36 33 -89 37 -119 4 -30 10 -58 14 -64 4 -5 3 -25 -2 -44 l-9 -34
-30 29 c-46 44 -72 109 -69 174 1 30 5 57 8 60 7 5 14 90 8 90 -2 0 -24 -28
-49 -62 -25 -35 -59 -76 -77 -93 -18 -16 -36 -40 -40 -52 -12 -29 -69 -42 -86
-18 -7 9 -17 14 -23 10 -6 -3 -11 -2 -11 3 0 12 24 22 51 22 10 0 19 7 19 15
0 8 6 15 14 15 8 0 28 11 44 25 17 14 35 25 41 25 8 0 11 16 9 48 -3 42 -6 47
-28 50 -14 2 -51 -11 -83 -28 -31 -16 -59 -30 -62 -30 -3 0 -5 13 -5 30 0 18
7 33 19 39 26 14 33 38 19 61 -10 15 -9 23 6 39 26 29 33 27 50 -14 8 -19 19
-36 23 -36 4 -1 27 -3 51 -4 35 -3 42 0 42 15 0 22 -10 32 -90 90 l-62 45 28
12 c16 7 50 12 77 13 50 0 62 15 25 29 -41 16 -62 49 -64 99 -1 26 -2 49 -3
51 -3 9 -41 -33 -41 -45 0 -15 -43 -29 -59 -19 -6 3 -11 19 -11 35 0 16 -4 40
-10 54 -7 19 -6 25 3 23 7 -1 13 11 15 28 2 17 13 40 24 51 13 14 18 32 16 50
l-4 29 -50 -51 c-28 -28 -61 -53 -73 -57 -11 -3 -21 -4 -21 -2 0 18 38 86 61
107 17 16 29 37 29 51 0 14 7 38 15 53 20 38 40 132 31 142 -10 10 -46 -36
-46 -58 0 -19 -25 -34 -41 -24 -5 3 -9 12 -9 20 0 8 -7 17 -15 20 -13 5 -13 9
0 34 21 40 20 130 -1 130 -8 0 -21 15 -29 34 -8 19 -20 36 -27 39 -9 3 -6 11
10 26 13 13 22 34 22 53 0 29 -1 30 -18 15 -24 -22 -32 -21 -32 3 0 11 -19 37
-41 58 -52 47 -59 49 -59 20 0 -26 35 -88 50 -88 5 0 10 -10 10 -23 0 -13 5
-28 11 -34 6 -6 9 -21 7 -34 -3 -22 -8 -19 -69 39 -36 34 -69 62 -72 62 -13 0
-7 -51 7 -56 8 -3 20 -20 27 -37 6 -18 18 -37 26 -43 8 -7 19 -43 24 -80 6
-38 21 -85 32 -104 l21 -35 -24 17 c-14 10 -41 27 -60 37 -19 11 -46 36 -59
55 -13 20 -30 36 -39 36 -21 0 -9 -67 18 -92 11 -10 20 -23 20 -29 0 -5 10
-23 21 -38 31 -42 20 -56 -21 -26 -34 25 -75 36 -53 14 6 -6 9 -18 6 -25 -11
-30 7 -63 40 -72 32 -8 32 -9 32 -73 0 -58 2 -64 21 -67 12 -2 28 4 37 12 13
14 15 13 21 -7 3 -12 2 -25 -2 -29 -11 -10 -76 16 -124 51 -40 29 -43 30 -46
12 -4 -24 52 -137 72 -144 13 -5 66 -95 66 -112 0 -14 -36 -2 -70 23 -31 21
-39 33 -37 55 2 24 -5 32 -52 58 -30 17 -59 28 -65 26 -14 -5 -19 82 -6 98 5
6 9 20 8 30 -1 11 2 31 6 44 13 38 -9 21 -51 -39 -21 -30 -49 -60 -62 -66 -12
-6 -37 -25 -54 -42 -36 -35 -80 -54 -102 -46 -21 9 -8 24 21 24 13 0 24 4 24
10 0 5 16 17 35 26 19 9 35 20 35 24 0 5 8 11 18 14 25 9 45 56 30 73 -8 11
-6 18 10 34 24 22 28 39 11 39 -7 0 12 26 42 57 l54 57 -37 7 c-20 3 -43 11
-51 18 -8 6 -22 9 -31 5 -11 -4 -16 -1 -16 14 0 13 9 22 25 26 31 8 32 22 2
31 -45 14 -67 45 -67 97 0 57 -21 65 -45 18 -22 -42 -61 -42 -67 0 -2 16 0 31
6 33 7 3 6 12 -3 28 -13 22 -13 23 2 11 9 -7 28 -12 44 -10 24 3 28 7 25 31
-2 17 2 27 11 27 7 0 28 16 47 35 l34 35 -56 0 c-51 0 -56 2 -51 20 7 25 -22
27 -48 4 -9 -8 -29 -17 -42 -18 -24 -3 -24 -1 -14 23 6 14 14 30 19 36 4 5 8
18 8 29 0 36 42 124 62 129 23 6 26 57 3 57 -8 0 -15 5 -15 12 0 9 -3 9 -12 0
-17 -17 -58 -15 -58 3 0 8 -7 15 -15 15 -13 0 -15 7 -10 34 8 42 -1 76 -21 76
-8 0 -19 12 -25 27 -5 14 -17 31 -25 38 -13 9 -13 13 5 29 12 11 21 31 21 48
0 32 -7 35 -26 11 -11 -16 -13 -15 -20 11 -6 25 -70 95 -95 104 -17 7 -9 -43
11 -73 34 -52 60 -101 60 -112 0 -5 -6 0 -14 9 -7 9 -25 19 -40 22 -34 6 -55
23 -67 53 -10 27 -53 31 -79 8 -15 -14 -16 -12 -12 14 2 18 13 33 28 40 13 6
24 19 24 30 0 20 -25 31 -72 31 -21 0 -28 5 -28 20 0 22 12 25 41 10 16 -9 21
-7 29 14 5 14 21 33 35 42 37 24 30 58 -12 62 -18 2 -33 8 -33 13 0 14 23 53
38 62 6 4 12 19 12 32 0 22 -5 25 -35 25 l-36 0 16 30 c31 61 9 103 -31 57
-13 -15 -27 -34 -32 -44 -9 -16 -11 -16 -27 0 -9 9 -21 17 -26 17 -13 0 -35
-54 -44 -107 -6 -41 -76 -153 -95 -153 -5 0 -11 21 -15 48 -3 26 -8 58 -11 72
-15 67 -16 113 -3 121 23 14 29 10 29 -16 0 -31 25 -33 42 -5 8 12 24 20 41
20 16 0 30 7 34 16 8 21 -41 70 -80 80 -28 7 -23 9 37 13 40 4 71 11 73 18 2
6 -12 23 -32 36 l-36 24 26 31 c14 16 25 35 25 41 0 19 -34 12 -73 -14 -29
-20 -37 -22 -37 -10 0 22 -27 18 -40 -5 -6 -12 -14 -39 -18 -62 -10 -57 -32
-62 -32 -7 0 28 13 71 41 131 28 61 38 93 31 100 -18 18 -53 -3 -70 -40 l-16
-37 -11 66 c-11 67 -36 119 -56 119 -11 0 -5 -159 8 -205 4 -15 -5 -10 -34 18
-21 20 -44 37 -51 37 -20 0 -13 -45 13 -81 13 -19 36 -50 50 -69 29 -41 50
-152 22 -114 -9 11 -19 34 -22 50 -13 57 -28 85 -44 82 -9 -2 -17 -15 -19 -31
l-3 -27 -39 23 c-31 17 -42 19 -51 10 -16 -16 -2 -48 43 -104 29 -37 31 -41
15 -56 -15 -15 -16 -14 -23 10 -10 44 -55 37 -113 -18 -26 -25 -54 -45 -61
-45 -7 0 -28 14 -47 30 -25 22 -44 30 -72 30 -42 0 -65 26 -38 42 8 4 18 25
22 45 l7 38 19 -37 c19 -37 39 -50 39 -25 0 6 -7 36 -15 66 l-14 54 28 -33
c15 -18 32 -31 38 -27 5 3 15 32 22 64 18 80 37 123 55 123 27 0 46 42 46 103
l0 59 -27 -6 c-88 -20 -102 -20 -114 6 -8 19 -8 31 0 46 6 11 11 46 11 77 l0
56 35 -27 c19 -14 42 -24 50 -20 16 6 17 13 15 99 -1 35 4 64 11 74 7 8 14 34
14 57 0 22 4 53 9 69 14 48 -8 29 -69 -61 -32 -48 -95 -122 -139 -165 -63 -62
-79 -84 -79 -107 0 -27 -4 -30 -49 -40 -27 -5 -53 -10 -58 -10 -17 0 -11 49
10 96 15 33 30 48 58 59 20 9 51 29 67 45 17 15 39 30 50 32 17 3 20 12 23 66
2 39 -2 69 -9 78 -26 31 -108 12 -199 -46 -25 -16 -57 -32 -72 -35 -28 -7 -28
-6 -28 39 0 41 5 51 40 86 42 41 51 73 24 88 -36 20 13 102 61 102 26 0 45
-25 45 -59 0 -42 103 -81 117 -46 5 13 8 13 20 -5 17 -24 41 -26 49 -5 14 36
-8 65 -99 129 -108 77 -127 93 -150 126 -21 31 -22 47 -1 26 18 -18 40 -21 49
-6 3 6 43 10 88 10 132 0 163 19 80 50 -23 8 -50 23 -62 34 -33 30 -55 99 -48
156 4 31 2 52 -5 56 -13 8 -68 -49 -68 -71 0 -18 -39 -35 -78 -35 -26 0 -28 4
-44 83 -9 45 -20 92 -24 105 -5 18 -3 21 11 16 23 -9 35 12 35 61 0 44 7 58
32 68 28 10 51 117 25 117 -14 0 -102 -82 -148 -138 -22 -26 -34 -32 -67 -32
l-41 0 31 68 c19 43 48 84 79 114 43 40 49 51 49 86 0 23 11 62 25 90 28 56
69 217 59 233 -14 23 -74 -58 -74 -100 0 -12 -11 -23 -31 -30 -39 -14 -35 -14
-53 5 -9 8 -16 27 -16 41 0 21 -4 25 -24 21 l-25 -5 27 51 c22 43 26 65 26
135 1 83 1 84 -29 101 -20 11 -35 31 -45 61 -11 32 -21 44 -35 44 -32 0 -28
29 10 68 28 29 35 44 35 77 0 22 -3 40 -7 40 -5 0 -20 -14 -35 -32 -29 -36
-31 -34 -43 34 -4 24 -12 39 -25 43 -11 3 -40 31 -66 61 -54 63 -74 69 -74 21z
m1017 -3067 c10 0 24 5 31 12 9 9 12 6 12 -16 0 -23 -3 -27 -17 -21 -10 4 -28
10 -40 12 -32 7 -30 -27 3 -66 22 -27 24 -34 13 -49 -7 -9 -14 -19 -16 -21 -3
-5 -137 71 -145 83 -15 22 -7 28 33 21 41 -7 42 -7 35 18 -5 21 -1 28 21 40
23 11 30 12 39 0 6 -7 20 -13 31 -13z m24531 -1440 c2 0 0 -10 -3 -21 -7 -21
-5 -21 39 -15 l46 7 0 -70 c0 -81 -6 -85 -80 -55 -45 18 -44 17 -28 43 6 10 8
26 5 35 -10 24 -81 21 -116 -5 -16 -12 -35 -19 -43 -16 -8 3 0 10 20 17 30 11
32 15 27 41 -5 24 -3 29 12 29 11 0 28 6 38 14 13 10 28 11 49 5 17 -5 32 -9
34 -9z m536 -5 c79 15 -7 -58 -97 -82 -28 -7 -55 -20 -60 -28 -5 -10 -24 -15
-57 -15 -61 0 -80 -7 -80 -30 0 -29 48 -60 91 -60 84 0 25 -33 -82 -45 -51 -6
-59 -4 -101 24 -52 35 -58 49 -58 144 0 62 2 67 21 67 18 0 20 -4 15 -25 -9
-35 21 -46 45 -17 21 27 25 27 32 1 5 -18 12 -20 59 -17 49 3 54 6 68 35 18
39 26 41 34 8 8 -33 18 -32 41 8 l20 32 3 -28 c5 -39 33 -32 46 11 5 19 12 28
16 22 5 -7 20 -9 44 -5z m-21810 -671 c9 -3 16 -14 16 -24 0 -10 12 -26 27
-36 l28 -17 -55 -16 c-72 -21 -80 -27 -80 -61 0 -18 -12 -43 -32 -67 -18 -21
-33 -39 -34 -41 -1 -2 -12 1 -24 8 -25 13 -60 4 -60 -15 0 -8 -10 -17 -22 -21
-13 -4 -35 -21 -51 -37 -23 -25 -30 -28 -38 -16 -12 19 -12 19 11 56 12 20 30
35 47 38 15 4 38 10 50 15 23 10 133 150 133 170 0 10 56 70 65 70 2 0 10 -3
19 -6z m21646 -13 c0 -17 8 -20 48 -23 l47 -3 -75 -38 c-73 -36 -210 -77 -257
-77 -13 0 -23 6 -23 14 0 11 9 13 35 9 30 -5 35 -3 35 14 0 11 -12 30 -26 44
-31 29 -49 59 -35 59 5 0 12 -8 15 -18 7 -20 74 -52 111 -52 30 0 31 7 5 35
l-21 22 32 13 c24 11 35 11 50 1 16 -9 21 -9 25 4 9 22 34 19 34 -4z m-22720
-114 c0 -6 9 -29 20 -52 27 -56 81 -86 148 -83 28 1 52 0 54 -2 2 -3 16 -31
31 -62 25 -55 26 -58 7 -58 -11 0 -37 7 -57 14 -21 8 -56 20 -78 25 -22 6 -62
29 -89 51 -26 22 -52 40 -57 40 -5 0 -9 37 -9 81 0 71 2 80 15 69 8 -7 15 -17
15 -23z m1290 -42 c0 -3 -10 -19 -22 -35 -18 -25 -19 -32 -8 -45 16 -19 59
-12 78 13 11 14 11 12 6 -15 -7 -38 5 -47 52 -38 28 5 38 13 46 37 l11 31 13
-24 c7 -13 13 -34 14 -46 0 -26 -38 -40 -141 -49 -61 -6 -69 -4 -137 30 -39
21 -81 36 -94 34 -32 -4 -35 -37 -7 -60 l24 -20 -30 7 c-16 4 -30 7 -31 8 0 1
-8 15 -18 31 -18 29 -18 30 4 71 18 33 31 44 67 54 38 12 46 11 62 -3 22 -20
71 -21 71 -2 0 8 6 17 13 19 17 7 27 8 27 2z m213 -292 c-15 -45 -117 -163
-140 -163 -7 0 -13 -4 -13 -10 0 -5 -8 -10 -18 -10 -11 0 -24 -11 -30 -24 -6
-13 -22 -26 -37 -29 -36 -6 -162 49 -170 74 -4 11 -11 19 -17 19 -17 0 12 30
46 47 17 8 42 25 56 37 13 11 6 0 -18 -26 -46 -52 -48 -58 -30 -76 18 -18 45
-15 68 8 l20 20 0 -24 c0 -14 4 -27 9 -31 11 -6 51 42 51 62 0 9 7 12 24 7 15
-4 25 -1 29 9 3 8 24 18 47 22 43 7 110 62 110 90 0 8 4 15 10 15 5 0 7 -8 3
-17z m-1782 -93 c30 -58 33 -70 19 -70 -9 0 -27 -11 -40 -25 -27 -29 -42 -31
-60 -10 -7 8 -26 15 -42 15 -26 0 -29 3 -22 23 9 31 11 32 30 16 15 -13 17
-11 12 18 -4 27 -2 31 10 21 15 -13 32 4 32 34 0 21 10 48 19 48 3 0 22 -32
42 -70z m1293 7 c9 -4 16 -15 16 -25 0 -10 5 -23 10 -28 7 -7 -13 -18 -63 -34
-61 -19 -83 -21 -123 -14 -48 9 -49 10 -52 50 -2 25 2 45 10 51 19 15 76 24
83 13 10 -16 41 -11 66 9 23 18 24 18 31 2 3 -10 13 -21 22 -24z"/>
<path d="M26573 10643 c-7 -3 -15 -20 -19 -39 l-6 -34 -35 31 c-75 65 -108 -1
-46 -92 55 -81 57 -88 28 -101 -21 -9 -25 -18 -23 -41 4 -43 31 -56 68 -35
l30 17 0 -45 0 -45 -37 26 c-21 14 -46 25 -55 25 -28 0 -23 -51 10 -96 l27
-39 -26 -27 -26 -27 -88 65 c-49 36 -95 63 -104 62 -30 -6 -25 -62 9 -101 l31
-36 -28 -13 c-35 -17 -42 -52 -13 -68 11 -6 25 -8 31 -4 12 7 38 -24 39 -45 0
-8 9 -25 20 -37 l21 -21 -40 -7 c-42 -6 -71 -28 -71 -52 0 -23 40 -56 58 -48
40 17 68 15 86 -5 22 -24 64 -28 72 -6 4 8 13 15 20 15 11 0 9 -7 -7 -29 -12
-16 -19 -37 -16 -45 8 -19 62 -22 74 -3 5 8 10 0 13 -23 5 -33 7 -35 40 -32
66 5 65 -4 68 382 2 237 -1 350 -8 350 -5 0 -10 9 -10 21 0 11 -7 27 -15 35
-9 9 -15 34 -15 58 0 75 -24 120 -57 109z"/>
<path d="M26085 9770 c-4 -6 -4 -23 0 -38 l6 -29 -73 -9 c-69 -9 -73 -10 -76
-36 -3 -23 3 -30 39 -49 26 -13 64 -22 95 -23 l53 -1 -20 -21 c-23 -24 -25
-70 -3 -78 8 -3 30 0 48 8 30 13 34 12 47 -8 8 -11 16 -32 19 -46 7 -32 33
-37 59 -11 11 11 33 23 48 27 16 4 33 10 38 13 6 3 -2 -5 -18 -20 -20 -17 -28
-32 -25 -50 4 -30 42 -38 69 -13 18 16 19 16 19 -9 0 -39 26 -34 51 8 17 29
24 33 35 24 11 -9 18 -8 32 3 9 9 33 18 52 22 19 3 50 15 68 26 l32 20 0 84 0
85 -97 -2 -98 -2 -59 43 c-91 65 -168 53 -103 -16 l22 -24 -37 15 c-45 19
-116 66 -142 96 -20 22 -70 29 -81 11z"/>
</g>
</svg>
